<svg width="25" height="25" viewBox="0 0 25 25" fill="none" xmlns="http://www.w3.org/2000/svg">
<path fill-rule="evenodd" clip-rule="evenodd" d="M12.5 0.78125C5.88155 0.78125 0.520874 6.14193 0.520874 12.7604C0.520874 18.0612 3.94991 22.5384 8.71163 24.1256C9.31059 24.2305 9.5352 23.8711 9.5352 23.5566C9.5352 23.2721 9.52022 22.3288 9.52022 21.3255C6.51046 21.8796 5.73181 20.5918 5.49223 19.918C5.35746 19.5736 4.77348 18.5104 4.26436 18.2259C3.84509 18.0013 3.24613 17.4473 4.24939 17.4323C5.19275 17.4173 5.86658 18.3008 6.09119 18.6602C7.16931 20.472 8.89132 19.9629 9.58012 19.6484C9.68494 18.8698 9.99939 18.3457 10.3438 18.0462C7.67843 17.7467 4.89327 16.7135 4.89327 12.1315C4.89327 10.8288 5.35746 9.75065 6.12113 8.91211C6.00134 8.61263 5.58207 7.38476 6.24093 5.73763C6.24093 5.73763 7.24418 5.42318 9.5352 6.96549C10.4935 6.69596 11.5118 6.5612 12.53 6.5612C13.5482 6.5612 14.5664 6.69596 15.5248 6.96549C17.8158 5.4082 18.8191 5.73763 18.8191 5.73763C19.4779 7.38476 19.0586 8.61263 18.9388 8.91211C19.7025 9.75065 20.1667 10.8138 20.1667 12.1315C20.1667 16.7285 17.3666 17.7467 14.7012 18.0462C15.1355 18.4206 15.5098 19.1393 15.5098 20.2624C15.5098 21.8646 15.4948 23.1523 15.4948 23.5566C15.4948 23.8711 15.7194 24.2454 16.3184 24.1256C21.0502 22.5384 24.4792 18.0462 24.4792 12.7604C24.4792 6.14193 19.1185 0.78125 12.5 0.78125Z" fill="white"/>
</svg>
