<svg width="20" height="20" viewBox="0 0 20 20" fill="none" xmlns="http://www.w3.org/2000/svg">
<g clip-path="url(#clip0_52_7)">
<path d="M4.54547 19.9016V9.65187L2.14898 6.74379L0 5.13V18.0928C0 19.0936 0.611328 19.9016 1.36367 19.9016H4.54547V19.9016Z" fill="#BDBDBD"/>
<path d="M15.4546 19.9015H18.6364C19.391 19.9015 20.0001 19.0905 20.0001 18.0927V5.13L17.566 6.9784L15.4546 9.65177V19.9015V19.9015Z" fill="#828282"/>
<path d="M4.54545 9.65177L4.21936 5.6469L4.54545 1.81384L9.99999 7.24016L15.4545 1.81384L15.8194 5.43996L15.4545 9.65177L9.99999 15.0781L4.54545 9.65177Z" fill="#E2E2E2"/>
<path d="M15.4546 1.8141V9.65203L20.0001 5.13016V2.71845C20.0001 0.481663 18.0751 -0.793467 16.7274 0.547984L15.4546 1.8141Z" fill="#D4D4D4"/>
<path d="M0 5.12984L2.09055 7.20964L4.54547 9.65171V1.81378L3.27266 0.547665C1.92266 -0.793889 0 0.481344 0 2.71803V5.12974V5.12984Z" fill="#616161"/>
</g>
<defs>
<clipPath id="clip0_52_7">
<rect width="20" height="20" fill="white"/>
</clipPath>
</defs>
</svg>
